<svg xmlns="http://www.w3.org/2000/svg" viewBox="0 0 1600 900" preserveAspectRatio="xMidYMid slice"><defs><linearGradient id="msky" x1="0" y1="0" x2="0" y2="1"><stop offset="0" stop-color="#7ad0ff"/><stop offset="1" stop-color="#c9f2ff"/></linearGradient></defs><rect width="1600" height="900" fill="url(#msky)"/><g fill="#ffffff" opacity="0.9"><ellipse cx="300" cy="170" rx="110" ry="46"/><ellipse cx="400" cy="150" rx="80" ry="38"/><ellipse cx="1220" cy="160" rx="130" ry="48"/></g><g fill="#a0c8e8"><path d="M0 470 l260 -150 l240 150 z"/><path d="M420 470 l300 -180 l280 180 z"/><path d="M980 470 l260 -150 l260 150 z"/></g><g fill="#8bd06a"><path d="M0 470 q400 -60 800 0 q400 60 800 0 V900 H0Z"/></g><g fill="#6fbf52"><path d="M0 640 q360 -80 760 -10 q380 70 840 -20 V900 H0Z"/></g><g fill="#f6d94a"><circle cx="360" cy="540" r="16"/><circle cx="720" cy="600" r="16"/><circle cx="1120" cy="560" r="16"/><circle cx="900" cy="700" r="16"/><circle cx="480" cy="720" r="16"/></g><g fill="#57a63e"><path d="M1180 760 q-14 -60 20 -80 q34 20 20 80z"/><path d="M1230 770 q-14 -70 22 -92 q36 22 20 92z"/><path d="M1290 762 q-14 -60 20 -80 q34 20 20 80z"/></g></svg>
